# xmcd CD database file generated by Grip 2.96
# 
# Track frame offsets:
#       150
#       14860
#       26395
#       37954
#       57164
#       77529
# 
# Disc length: 1273 seconds
# 
# Revision: 0
# Processed by: cddbd v1.5.1PL0 Copyright (c) Steve Scherf et al.
# Submitted via: Grip 2.96
# 
DISCID=3e04f706
DTITLE=Felicity Urquhart - Turn Out The Light
DYEAR=1900
DGENRE=
TTITLE0=Turn Out The Light
TTITLE1=Jealousy
TTITLE2=Dear Someone
TTITLE3=Till the Rivers All Run Dry
TTITLE4=Thats What I Call Love
TTITLE5=If You Were My Baby
EXTD=
EXTT0=
EXTT1=
EXTT2=
EXTT3=
EXTT4=
EXTT5=
PLAYORDER=
